<svg width="1200" height="1200" viewBox="0 0 1200 1200" fill="none" xmlns="http://www.w3.org/2000/svg">
<g clip-path="url(#clip0_32_5)">
<path d="M1070.77 228.099C1275.98 488.28 1231.42 865.557 971.243 1070.77C711.062 1275.98 333.785 1231.42 128.572 971.243C-76.6416 711.062 -32.0817 333.786 228.099 128.572C488.28 -76.6414 865.557 -32.0816 1070.77 228.099Z" fill="black"/>
<path d="M29.6699 599.671C13.1014 599.671 -0.408321 586.231 0.419753 569.683C3.84997 501.135 19.0206 433.607 45.3423 370.061C75.4951 297.265 119.691 231.122 175.406 175.407C231.121 119.692 297.265 75.4959 370.06 45.3431C433.606 19.0215 501.135 3.85089 569.683 0.420712C586.23 -0.407353 599.67 13.1024 599.67 29.6709C599.67 46.2395 586.228 59.584 569.685 60.504C509.021 63.8777 449.287 77.47 393.021 100.776C327.505 127.913 267.976 167.69 217.832 217.833C167.689 267.977 127.913 327.506 100.775 393.022C77.4692 449.287 63.8768 509.022 60.5031 569.686C59.5831 586.229 46.2385 599.671 29.6699 599.671Z" fill="#89BCA7"/>
<path d="M1169.67 599.671C1186.24 599.671 1199.75 613.111 1198.92 629.659C1195.49 698.207 1180.32 765.736 1154 829.282C1123.84 902.077 1079.65 968.221 1023.93 1023.94C968.219 1079.65 902.075 1123.85 829.28 1154C765.734 1180.32 698.205 1195.49 629.657 1198.92C613.11 1199.75 599.67 1186.24 599.67 1169.67C599.67 1153.1 613.112 1139.76 629.655 1138.84C690.319 1135.46 750.053 1121.87 806.319 1098.57C871.835 1071.43 931.364 1031.65 981.508 981.509C1031.65 931.366 1071.43 871.836 1098.57 806.321C1121.87 750.055 1135.46 690.321 1138.84 629.657C1139.76 613.114 1153.1 599.671 1169.67 599.671Z" fill="#89BCA7"/>
<rect x="1037.27" y="508.977" width="500.001" height="150" rx="20" transform="rotate(141.736 1037.27 508.977)" fill="#89BCA7"/>
<path d="M614.608 651.303L363.355 849.475C348.264 861.378 357.013 885.64 376.227 885.173L776.109 875.44C792.585 875.04 801.533 856.001 791.326 843.061L642.697 654.621C635.857 645.948 623.281 644.463 614.608 651.303Z" fill="#89BCA7"/>
<rect x="161.422" y="690.341" width="500.001" height="150" rx="20" transform="rotate(-38.264 161.422 690.341)" fill="#89BCA7"/>
<path d="M584.085 548.015L835.339 349.843C850.43 337.94 841.681 313.678 822.466 314.145L422.584 323.877C406.108 324.278 397.161 343.317 407.367 356.257L555.996 544.697C562.837 553.37 575.413 554.855 584.085 548.015Z" fill="#89BCA7"/>
</g>
<defs>
<clipPath id="clip0_32_5">
<rect width="1200" height="1200" rx="600" fill="white"/>
</clipPath>
</defs>
</svg>
