<svg width="2368" height="2368" viewBox="0 0 2368 2368" fill="none" xmlns="http://www.w3.org/2000/svg">
<path d="M1784.25 1184.21C1784.25 1515.58 1515.62 1784.21 1184.25 1784.21C852.879 1784.21 584.25 1515.58 584.25 1184.21C584.25 852.842 852.879 584.212 1184.25 584.212C1515.62 584.212 1784.25 852.842 1784.25 1184.21Z" fill="black"/>
<path d="M1750.32 1117.35C1766.77 1115.41 1781.76 1127.17 1782.88 1143.7C1787.51 1212.18 1780.37 1281.02 1761.68 1347.22C1740.28 1423.05 1704.14 1493.92 1655.35 1555.78C1606.55 1617.65 1546.05 1669.3 1477.29 1707.78C1417.27 1741.37 1351.99 1764.36 1284.32 1775.81C1267.98 1778.57 1253.05 1766.73 1251.11 1750.28C1249.16 1733.82 1260.95 1718.99 1277.27 1716.14C1337.12 1705.67 1394.85 1685.17 1447.99 1655.42C1509.87 1620.79 1564.32 1574.31 1608.24 1518.63C1652.16 1462.95 1684.67 1399.16 1703.94 1330.92C1720.49 1272.31 1726.98 1211.39 1723.21 1150.75C1722.19 1134.21 1733.86 1119.3 1750.32 1117.35Z" fill="#89BCA7"/>
<path d="M614.25 1184.21C597.681 1184.21 584.172 1170.77 585 1154.22C588.43 1085.68 603.601 1018.15 629.922 954.602C660.075 881.806 704.271 815.663 759.986 759.948C815.701 704.233 881.845 660.037 954.64 629.884C1018.19 603.563 1085.72 588.392 1154.26 584.962C1170.81 584.134 1184.25 597.644 1184.25 614.212C1184.25 630.781 1170.81 644.125 1154.27 645.045C1093.6 648.419 1033.87 662.011 977.601 685.317C912.086 712.454 852.556 752.231 802.413 802.374C752.269 852.518 712.493 912.047 685.355 977.563C662.049 1033.83 648.457 1093.56 645.083 1154.23C644.163 1170.77 630.819 1184.21 614.25 1184.21Z" fill="#89BCA7"/>
<rect x="1608.27" y="1042.58" width="500.001" height="150" rx="20" transform="rotate(135 1608.27 1042.58)" fill="#89BCA7"/>
<path d="M1205.22 1233.5L978.941 1459.77C965.35 1473.36 976.885 1496.43 995.912 1493.71L1391.89 1437.15C1408.21 1434.82 1414.86 1414.86 1403.21 1403.2L1233.5 1233.5C1225.69 1225.69 1213.03 1225.69 1205.22 1233.5Z" fill="#89BCA7"/>
<rect x="759.738" y="1325.42" width="500.001" height="150" rx="20" transform="rotate(-45 759.738 1325.42)" fill="#89BCA7"/>
<path d="M1162.79 1134.5L1389.06 908.229C1402.66 894.638 1391.12 871.57 1372.09 874.288L976.114 930.857C959.798 933.187 953.146 953.144 964.8 964.798L1134.51 1134.5C1142.32 1142.31 1154.98 1142.31 1162.79 1134.5Z" fill="#89BCA7"/>
</svg>
