<svg width="1687" height="1687" viewBox="0 0 1687 1687" fill="none" xmlns="http://www.w3.org/2000/svg">
<path d="M1314.59 471.919C1519.8 732.1 1475.24 1109.38 1215.06 1314.59C954.883 1519.8 577.606 1475.24 372.392 1215.06C167.179 954.882 211.739 577.605 471.919 372.392C732.1 167.178 1109.38 211.738 1314.59 471.919Z" fill="black"/>
<path d="M273.49 843.491C256.922 843.491 243.412 830.051 244.24 813.503C247.67 744.955 262.841 677.427 289.163 613.881C319.315 541.085 363.511 474.942 419.226 419.227C474.942 363.512 541.085 319.316 613.88 289.163C677.427 262.842 744.955 247.671 813.503 244.241C830.051 243.413 843.491 256.922 843.491 273.491V273.491C843.491 290.059 830.049 303.404 813.506 304.324C752.841 307.698 693.107 321.29 636.841 344.596C571.326 371.733 511.796 411.51 461.653 461.653C411.509 511.797 371.733 571.326 344.595 636.842C321.289 693.107 307.697 752.842 304.323 813.506C303.403 830.049 290.059 843.491 273.49 843.491V843.491Z" fill="#89BCA7"/>
<path d="M1413.49 843.491C1430.06 843.491 1443.57 856.931 1442.74 873.479C1439.31 942.027 1424.14 1009.56 1397.82 1073.1C1367.67 1145.9 1323.47 1212.04 1267.75 1267.76C1212.04 1323.47 1145.9 1367.67 1073.1 1397.82C1009.55 1424.14 942.026 1439.31 873.478 1442.74C856.93 1443.57 843.49 1430.06 843.49 1413.49V1413.49C843.49 1396.92 856.932 1383.58 873.475 1382.66C934.139 1379.28 993.874 1365.69 1050.14 1342.39C1115.66 1315.25 1175.18 1275.47 1225.33 1225.33C1275.47 1175.19 1315.25 1115.66 1342.39 1050.14C1365.69 993.875 1379.28 934.141 1382.66 873.477C1383.58 856.934 1396.92 843.491 1413.49 843.491V843.491Z" fill="#89BCA7"/>
<rect x="1281.09" y="752.797" width="500.001" height="150" rx="20" transform="rotate(141.736 1281.09 752.797)" fill="#89BCA7"/>
<path d="M858.428 895.123L607.175 1093.29C592.084 1105.2 600.833 1129.46 620.047 1128.99L1019.93 1119.26C1036.41 1118.86 1045.35 1099.82 1035.15 1086.88L886.517 898.441C879.677 889.768 867.101 888.282 858.428 895.123Z" fill="#89BCA7"/>
<rect x="405.242" y="934.161" width="500.001" height="150" rx="20" transform="rotate(-38.264 405.242 934.161)" fill="#89BCA7"/>
<path d="M827.906 791.835L1079.16 593.663C1094.25 581.76 1085.5 557.498 1066.29 557.965L666.404 567.697C649.928 568.098 640.981 587.137 651.188 600.077L799.816 788.517C806.657 797.19 819.233 798.675 827.906 791.835Z" fill="#89BCA7"/>
</svg>
